<?xml version="1.0" standalone="no"?>
<!DOCTYPE svg PUBLIC "-//W3C//DTD SVG 1.1//EN" "http://www.w3.org/Graphics/SVG/1.1/DTD/svg11.dtd" >
<svg xmlns="http://www.w3.org/2000/svg">
<metadata></metadata>
<defs>
<font id="corpid_c1sbold" horiz-adv-x="1126" >
<font-face units-per-em="2048" ascent="1595" descent="-453" />
<missing-glyph horiz-adv-x="552" />
<glyph horiz-adv-x="0" />
<glyph horiz-adv-x="0" />
<glyph horiz-adv-x="682" />
<glyph unicode="&#xd;" horiz-adv-x="1024" />
<glyph unicode=" "  horiz-adv-x="552" />
<glyph unicode="&#x09;" horiz-adv-x="552" />
<glyph unicode="&#xa0;" horiz-adv-x="552" />
<glyph unicode="!" horiz-adv-x="737" d="M248 139q0 69 46.5 116.5t115.5 47.5t115 -47.5t46 -116.5t-46 -115.5t-115 -46.5t-115.5 46.5t-46.5 115.5zM266 1536h287l-31 -1110h-225z" />
<glyph unicode="&#x22;" horiz-adv-x="978" d="M137 1536h244l-29 -567h-186zM553 1536h244l-29 -567h-186z" />
<glyph unicode="#" d="M59 397v183h166l35 290h-149v183h172l45 377h204l-45 -377h234l45 377h205l-45 -377h145v-183h-168l-35 -290h148v-183h-168l-47 -397h-205l47 397h-233l-48 -397h-204l47 397h-146zM430 580h234l34 290h-233z" />
<glyph unicode="$" d="M111 61l47 213q167 -63 344 -63q109 0 172 47.5t63 126.5q0 23 -4.5 42.5t-16.5 36t-22 28.5t-32.5 24t-36 19.5t-43.5 17t-44.5 14t-50 14t-49.5 13.5q-57 17 -96.5 32t-86 43.5t-75 63.5t-48 90.5t-19.5 124.5q0 147 96.5 249.5t255.5 127.5v221h201v-215 q125 -9 258 -57l-54 -197q-128 49 -278 49q-102 0 -151.5 -41.5t-49.5 -109.5q0 -20 4.5 -37t15.5 -31t21 -25t30 -21.5t34 -17.5t41.5 -16t42.5 -13.5t48 -14t48 -13.5q58 -17 99 -32.5t90 -45t78.5 -65.5t50 -93.5t20.5 -129.5q0 -84 -28 -154t-77.5 -119t-110.5 -82.5 t-132 -50.5v-252h-201v234q-176 3 -354 65z" />
<glyph unicode="%" horiz-adv-x="1744" d="M70 1073q0 189 92 287t254 98q338 0 338 -383q0 -188 -93 -285.5t-255 -97.5q-336 0 -336 381zM276 45l1047 1442l147 -98l-1048 -1444zM276 1073q0 -121 34 -172t102 -51q69 0 101 55t32 170q0 121 -34 173t-101 52q-69 0 -101.5 -55.5t-32.5 -171.5zM993 356 q0 188 92.5 285.5t255.5 97.5q336 0 336 -381q0 -188 -93 -285.5t-255 -97.5q-336 0 -336 381zM1202 356q0 -122 33 -172.5t100 -50.5q70 0 101.5 55t31.5 170q0 122 -33 173t-100 51q-70 0 -101.5 -55.5t-31.5 -170.5z" />
<glyph unicode="&#x26;" horiz-adv-x="1507" d="M119 371q0 121 61.5 216t186.5 181q-150 188 -150 338q0 159 106.5 255.5t286.5 96.5q74 0 140 -19t119.5 -56t84.5 -98t31 -138q0 -117 -65.5 -203t-225.5 -190q128 -131 340 -297q70 146 70 340h233q-6 -270 -120 -471q145 -106 241 -168l-135 -195q-161 116 -250 182 q-187 -174 -455 -174q-236 0 -367.5 105.5t-131.5 294.5zM379 401q0 -108 69.5 -168.5t198.5 -60.5q146 0 250 104q-252 199 -395 347q-123 -99 -123 -222zM451 1118q0 -94 110 -229q105 70 148 122.5t43 114.5q0 68 -38 110t-114 42q-70 0 -109.5 -46t-39.5 -114z" />
<glyph unicode="'" horiz-adv-x="524" d="M137 1536h250l-29 -567h-192z" />
<glyph unicode="(" horiz-adv-x="700" d="M123 594q0 517 260 1001l203 -77q-193 -449 -193 -922q0 -472 193 -924l-203 -78q-260 484 -260 1000z" />
<glyph unicode=")" horiz-adv-x="700" d="M115 -328q192 440 192 922q0 481 -192 924l202 77q261 -480 261 -999q0 -522 -261 -1002z" />
<glyph unicode="*" d="M141 1026l279 115l-279 114l111 193l240 -182l-41 299h225l-41 -299l239 182l111 -193l-278 -112l278 -117l-111 -192l-237 184l39 -299h-225l41 297l-240 -182z" />
<glyph unicode="+" d="M74 532v205h379v414h221v-414h379v-205h-379v-413h-221v413h-379z" />
<glyph unicode="," horiz-adv-x="579" d="M53 -248q137 149 137 221q0 24 -29.5 75t-29.5 104q0 71 43.5 116t116.5 45q71 0 117.5 -54t46.5 -142q0 -101 -70.5 -222.5t-220.5 -244.5z" />
<glyph unicode="-" horiz-adv-x="622" d="M78 444v213h536v-213h-536z" />
<glyph unicode="." horiz-adv-x="579" d="M123 150q0 71 48 119t120 48q70 0 118 -48t48 -119t-48 -119.5t-118 -48.5q-72 0 -120 48.5t-48 119.5z" />
<glyph unicode="/" horiz-adv-x="956" d="M8 -262l682 1913l240 -72l-684 -1913z" />
<glyph unicode="0" d="M53 602q0 104 17 194t55.5 170.5t97 138t147 91t199.5 33.5q502 0 502 -623q0 -109 -17.5 -202t-56.5 -174t-97.5 -137.5t-146 -89t-196.5 -32.5q-141 0 -241 45t-156.5 131.5t-81.5 197.5t-25 257zM328 612q0 -241 58 -340.5t185 -99.5q68 0 113 29t69 88t33 131t9 176 q0 217 -53.5 324.5t-182.5 107.5q-120 0 -175.5 -105.5t-55.5 -310.5z" />
<glyph unicode="1" d="M135 961l381 247h240v-995h270v-213h-856v213h313v729l-274 -141z" />
<glyph unicode="2" d="M90 0v205l285 223q119 93 184 163.5t86 120.5t21 109q0 84 -55 135.5t-156 51.5q-140 0 -295 -64l-43 213q199 72 395 72q221 0 343 -97.5t122 -265.5q0 -139 -75.5 -252.5t-270.5 -257.5l-178 -135h581v-221h-944z" />
<glyph unicode="3" d="M84 -31q178 -14 309 -14q150 0 228.5 59.5t78.5 161.5q0 227 -338 227h-118v203h125q154 0 233.5 58.5t79.5 156.5q0 90 -55.5 141.5t-171.5 51.5q-141 0 -299 -64l-41 203q209 76 401 76q218 0 339.5 -98t121.5 -265q0 -124 -75.5 -216.5t-203.5 -123.5v-4 q142 -9 229 -105.5t87 -232.5q0 -143 -74.5 -244.5t-199 -149.5t-287.5 -48q-219 0 -369 31v196z" />
<glyph unicode="4" d="M39 66v239l500 895h372v-915h166v-219h-166v-295h-264v295h-608zM258 285h389v682h-4z" />
<glyph unicode="5" d="M100 -29q156 -16 320 -16q154 0 235.5 64t81.5 190q0 117 -73.5 176t-235.5 59q-110 0 -274 -20l12 776h760v-229h-531l-6 -324q71 6 156 6q233 0 358 -107.5t125 -312.5q0 -231 -155.5 -361t-423.5 -130q-170 0 -349 29v200z" />
<glyph unicode="6" d="M88 657q0 131 16.5 242.5t59 216.5t109.5 177.5t173.5 116.5t245.5 44q161 0 293 -49l-43 -184q-122 39 -254 39q-71 0 -128 -24t-95 -64.5t-64 -96.5t-38 -118t-13 -132v-4q137 92 297 92q113 0 194.5 -34.5t127.5 -97t67 -139.5t21 -173q0 -136 -56 -248t-168 -181 t-262 -69q-256 0 -369.5 174t-113.5 512zM354 631q0 -245 54 -350t167 -105q103 0 158 77.5t55 197.5q0 126 -45.5 190t-150.5 64q-126 0 -238 -74z" />
<glyph unicode="7" d="M96 971v229h938v-233l-377 -846q-99 -215 -233 -381l-199 98q102 172 215 436l295 697h-639z" />
<glyph unicode="8" d="M59 342q0 120 74 213t217 170q-120 66 -184 152t-64 206q0 169 121.5 272t347.5 103q222 0 336.5 -95t114.5 -253q0 -208 -252 -354q142 -73 217.5 -164t75.5 -213q0 -197 -132 -302.5t-378 -105.5q-238 0 -366 90.5t-128 280.5zM330 362q0 -97 60 -143.5t181 -46.5 q105 0 163.5 50t58.5 136q0 82 -58.5 139.5t-193.5 127.5q-211 -127 -211 -263zM367 1087q0 -70 48.5 -126t159.5 -113q183 110 183 233q0 85 -51 133t-146 48q-96 0 -145 -49t-49 -126z" />
<glyph unicode="9" d="M68 735q0 139 56 250t167 177.5t260 66.5q106 0 187.5 -30t137.5 -86.5t92 -141.5t52 -190.5t16 -237.5q0 -138 -18.5 -254t-63 -219t-112.5 -175t-173 -113.5t-239 -41.5q-140 0 -330 33l19 194q176 -28 313 -28q88 0 153 31.5t104 91.5t60 136.5t27 176.5l-4 4 q-58 -42 -135.5 -67t-159.5 -25q-110 0 -190.5 33t-127.5 94t-69 140.5t-22 180.5zM338 760q0 -132 44 -199t150 -67q119 0 238 73q0 245 -54 352t-167 107q-106 0 -158.5 -75t-52.5 -191z" />
<glyph unicode=":" horiz-adv-x="620" d="M164 150q0 71 48 119t120 48q70 0 118 -48t48 -119t-48 -119.5t-118 -48.5q-72 0 -120 48.5t-48 119.5zM164 877q0 71 48 118t120 47q71 0 118.5 -47.5t47.5 -117.5q0 -71 -48 -119.5t-118 -48.5q-72 0 -120 48.5t-48 119.5z" />
<glyph unicode=";" horiz-adv-x="620" d="M94 -248q137 149 137 221q0 24 -29.5 75t-29.5 104q0 71 43.5 116t116.5 45q72 0 118 -54t46 -142q0 -101 -70.5 -222.5t-220.5 -244.5zM164 877q0 71 48 118t120 47q71 0 118.5 -47.5t47.5 -117.5q0 -71 -48 -119.5t-118 -48.5q-72 0 -120 48.5t-48 119.5z" />
<glyph unicode="&#x3c;" d="M86 532v211l911 453v-240l-673 -319l673 -315v-244z" />
<glyph unicode="=" d="M106 313v203h914v-203h-914zM106 758v203h914v-203h-914z" />
<glyph unicode="&#x3e;" d="M129 78v239l674 316l-674 319v244l911 -453v-211z" />
<glyph unicode="?" horiz-adv-x="960" d="M129 1331v195q139 33 264 33q244 0 358.5 -97t114.5 -272q0 -70 -20.5 -131.5t-52 -108t-70 -91t-75 -89t-65.5 -93t-43.5 -113t-7.5 -138.5h-231q-17 99 -2 181t47 137t74 107.5t79 93.5t63 93.5t26 108.5q0 199 -236 199q-109 0 -223 -15zM256 139q0 69 47 116.5 t117 47.5q69 0 115.5 -47.5t46.5 -116.5t-46.5 -115.5t-115.5 -46.5q-70 0 -117 46.5t-47 115.5z" />
<glyph unicode="@" horiz-adv-x="1798" d="M158 575q0 206 70 374.5t192.5 280t289.5 172t361 60.5q138 0 241 -32t163.5 -88.5t90 -128.5t29.5 -158v-733h-190l-25 124q-124 -151 -331 -151q-164 0 -261.5 84t-97.5 225q0 184 132.5 267t391.5 83h127v78q0 116 -69.5 175t-231.5 59q-137 0 -255.5 -45.5t-206 -130 t-137.5 -212.5t-50 -284q0 -145 45.5 -268t130.5 -213.5t215 -141.5t291 -51q256 0 475 107l54 -185q-251 -121 -562 -121q-199 0 -364.5 63t-279 175.5t-176 270.5t-62.5 345zM950 631q0 -67 40.5 -106.5t115.5 -39.5q68 0 123 29t112 86v188h-129q-134 0 -198 -38.5 t-64 -118.5z" />
<glyph unicode="A" horiz-adv-x="1398" d="M37 0q216 723 500 1430h321q288 -708 504 -1430h-307q-64 228 -97 334h-550q-24 -76 -99 -334h-272zM469 545h432q-67 212 -170 493q-5 15 -21 60t-24 69h-2q-25 -75 -45 -129q-105 -292 -170 -493z" />
<glyph unicode="B" horiz-adv-x="1241" d="M162 0v1430h432q234 0 357.5 -90t123.5 -269q0 -105 -50.5 -184t-135.5 -117q120 -24 196 -113.5t76 -224.5q0 -112 -43.5 -196.5t-120 -135t-173 -75.5t-210.5 -25h-452zM430 211h211q103 0 168 54t65 151q0 105 -67.5 161t-204.5 56h-172v-422zM430 836h172 q101 0 150 53.5t49 144.5q0 187 -223 187h-148v-385z" />
<glyph unicode="C" horiz-adv-x="1198" d="M94 694q0 356 185.5 558t494.5 202q205 0 375 -80l-82 -213q-136 62 -287 62q-182 0 -287.5 -140.5t-105.5 -367.5q0 -252 113 -379t311 -127q141 0 276 61l68 -211q-80 -39 -180.5 -61.5t-194.5 -22.5q-324 0 -505 184.5t-181 534.5z" />
<glyph unicode="D" horiz-adv-x="1447" d="M162 0v1430h485q343 0 528 -179t185 -516q0 -364 -195.5 -549.5t-546.5 -185.5h-456zM434 219h193q446 0 446 502q0 109 -25.5 196.5t-77.5 154.5t-138.5 103.5t-202.5 36.5h-195v-993z" />
<glyph unicode="E" horiz-adv-x="1120" d="M162 0v1430h831v-218h-559v-366h484v-213h-484v-416h567v-217h-839z" />
<glyph unicode="F" horiz-adv-x="1032" d="M162 0v1430h786v-218h-512v-393h457v-215h-457v-604h-274z" />
<glyph unicode="G" horiz-adv-x="1425" d="M88 698q0 350 197.5 553t537.5 203q252 0 467 -119l-84 -209q-185 101 -381 101q-211 0 -331.5 -140t-120.5 -372q0 -246 119 -378t329 -132q95 0 180 24v539h275v-717q-214 -78 -469 -78q-342 0 -530.5 192.5t-188.5 532.5z" />
<glyph unicode="H" horiz-adv-x="1437" d="M162 0v1430h274v-572h565v572h275v-1430h-275v623h-565v-623h-274z" />
<glyph unicode="I" horiz-adv-x="598" d="M162 0v1430h274v-1430h-274z" />
<glyph unicode="J" horiz-adv-x="724" d="M35 -8v215h94q88 0 123 44.5t35 156.5v1022h276v-1000q0 -86 -8 -150.5t-30.5 -125t-61 -99t-102 -61.5t-150.5 -23q-83 0 -176 21z" />
<glyph unicode="K" horiz-adv-x="1296" d="M162 0v1430h274v-564q118 135 482 564h337l-526 -568l539 -862h-330l-408 672l-94 -107v-565h-274z" />
<glyph unicode="L" horiz-adv-x="956" d="M162 0v1430h274v-1207h494v-223h-768z" />
<glyph unicode="M" horiz-adv-x="1931" d="M145 0q6 691 99 1430h397l324 -1024h4l327 1024h398q86 -712 92 -1430h-277q-7 650 -61 1141h-2l-367 -1141h-258l-360 1141h-4q-55 -581 -58 -1141h-254z" />
<glyph unicode="N" horiz-adv-x="1480" d="M162 0v1430h362l547 -1039h4v1039h244v-1430h-350l-559 1061h-4v-1061h-244z" />
<glyph unicode="O" horiz-adv-x="1576" d="M94 707q0 228 80 396.5t239 261.5t382 93q332 0 510 -188.5t178 -540.5q0 -356 -180.5 -557t-522.5 -201q-340 0 -513 185.5t-173 550.5zM385 731q0 -126 21.5 -220.5t68.5 -166t128.5 -108.5t195.5 -37q87 0 155 26.5t112 72.5t73 111t41 138t12 158q0 120 -21.5 213 t-68.5 165t-128.5 110t-195.5 38q-86 0 -154 -26.5t-112 -72t-73 -110t-41.5 -136.5t-12.5 -155z" />
<glyph unicode="P" horiz-adv-x="1198" d="M162 0v1430h428q104 0 188 -17q164 -33 255 -140.5t91 -277.5q0 -237 -140.5 -364t-399.5 -127h-148v-504h-274zM436 717h162q118 0 178 70t60 188q0 87 -39 146t-113 81q-53 15 -115 15h-133v-500z" />
<glyph unicode="Q" horiz-adv-x="1585" d="M94 707q0 228 80 396.5t239 261.5t382 93q332 0 510 -188.5t178 -540.5q0 -323 -148 -518l232 -221l-146 -148l-245 232q-159 -103 -396 -103q-340 0 -513 185.5t-173 550.5zM385 731q0 -126 21.5 -220.5t68.5 -166t128.5 -108.5t195.5 -37q113 0 190 55l-219 207 l145 149l213 -204q64 116 64 299q0 120 -21.5 213t-68.5 165t-128.5 110t-195.5 38q-86 0 -154 -26.5t-112 -72t-73 -110t-41.5 -136.5t-12.5 -155z" />
<glyph unicode="R" horiz-adv-x="1255" d="M162 0v1430h461q233 0 364 -99.5t131 -288.5q0 -149 -75 -246t-203 -139l358 -657h-319l-308 592h-135v-592h-274zM436 799h135q126 0 192 59.5t66 157.5q0 88 -56.5 144.5t-178.5 56.5h-158v-418z" />
<glyph unicode="S" horiz-adv-x="1069" d="M92 23l31 227q161 -53 319 -53q130 0 195 50.5t65 145.5q0 36 -12.5 65.5t-31.5 51t-56 43.5t-71.5 37.5t-92.5 38.5q-83 34 -141 69t-105 84t-70.5 114t-23.5 148q0 193 138.5 303.5t355.5 110.5q176 0 315 -51l-41 -213q-124 45 -272 45q-99 0 -152 -43.5t-53 -118.5 q0 -36 11.5 -65.5t29 -50.5t50 -41.5t61 -34.5t75.5 -33q52 -22 83 -36t76 -38t72 -45.5t58 -53.5t48 -67t28.5 -81.5t11.5 -100.5q0 -149 -72.5 -254.5t-194.5 -155t-282 -49.5q-166 0 -352 52z" />
<glyph unicode="T" horiz-adv-x="1118" d="M23 1208v222h1073v-222h-400v-1208h-274v1208h-399z" />
<glyph unicode="U" horiz-adv-x="1470" d="M160 518v912h274v-889q0 -167 82 -255.5t223 -88.5q142 0 222.5 87t80.5 244v902h269v-893q0 -267 -151 -415.5t-429 -148.5q-272 0 -421.5 138.5t-149.5 406.5z" />
<glyph unicode="V" horiz-adv-x="1355" d="M27 1430h307q134 -520 311 -1014l47 -137h2l51 155q197 569 308 996h278q-203 -701 -487 -1430h-334q-276 703 -483 1430z" />
<glyph unicode="W" horiz-adv-x="2086" d="M63 1430h297q90 -523 222 -1012q26 -110 32 -135h4l41 182l238 965h311l242 -963l43 -184h2q14 55 39 155q143 552 219 992h272q-137 -700 -358 -1430h-360l-230 911l-35 154h-4l-32 -154l-228 -911h-362q-216 698 -353 1430z" />
<glyph unicode="X" horiz-adv-x="1308" d="M18 0l449 741l-406 689h328l273 -486l268 486h317l-403 -680l446 -750h-334l-307 545l-303 -545h-328z" />
<glyph unicode="Y" horiz-adv-x="1224" d="M12 1430h310q133 -331 305 -615q179 292 297 615h288q-196 -473 -460 -855v-575h-275v575q-260 390 -465 855z" />
<glyph unicode="Z" horiz-adv-x="1077" d="M57 0v213l635 999h-608v218h915v-220l-630 -993h643v-217h-955z" />
<glyph unicode="[" horiz-adv-x="729" d="M178 -369v1930h445v-189h-197v-1552h197v-189h-445z" />
<glyph unicode="\" horiz-adv-x="956" d="M27 1579l237 72l684 -1913l-237 -72z" />
<glyph unicode="]" horiz-adv-x="729" d="M106 -180h197v1552h-197v189h443v-1930h-443v189z" />
<glyph unicode="^" d="M94 727l318 703h317l330 -703h-266l-228 506l-211 -506h-260z" />
<glyph unicode="_" d="M0 -262h1126v-191h-1126v191z" />
<glyph unicode="`" horiz-adv-x="602" d="M0 1464l188 119l244 -303l-137 -94z" />
<glyph unicode="a" horiz-adv-x="1132" d="M78 293q0 342 526 342h127v55q0 102 -48 148.5t-171 46.5q-155 0 -309 -62l-45 191q182 67 391 67q229 0 334.5 -93.5t105.5 -272.5v-715h-198l-21 100q-141 -129 -332 -129q-166 0 -263 83t-97 239zM340 307q0 -68 41 -106.5t119 -38.5q115 0 231 104v199h-131 q-260 0 -260 -158z" />
<glyph unicode="b" horiz-adv-x="1236" d="M143 51v1485h263v-590q69 65 145.5 100t177.5 35q106 0 188 -40t132.5 -110.5t76 -162t25.5 -199.5q0 -131 -34 -236.5t-102 -185t-178 -122.5t-255 -43q-212 0 -439 69zM406 229q94 -41 194 -41q136 0 206.5 90.5t70.5 260.5q0 329 -203 329q-71 0 -135.5 -37.5 t-132.5 -117.5v-484z" />
<glyph unicode="c" horiz-adv-x="931" d="M82 506q0 271 141.5 420t378.5 149q152 0 270 -55l-57 -195q-93 41 -192 41q-134 0 -200.5 -89.5t-66.5 -248.5q0 -335 271 -335q109 0 207 43l45 -197q-152 -64 -306 -64q-245 0 -368 140t-123 391z" />
<glyph unicode="d" horiz-adv-x="1236" d="M84 483q0 125 33 230.5t98 186t170.5 126t241.5 45.5q108 0 202 -20v485h263v-1536h-199l-21 137q-78 -83 -163 -124.5t-195 -41.5q-108 0 -192 39.5t-135 110t-77 162t-26 200.5zM360 514q0 -330 205 -330q71 0 133 37.5t131 118.5v481q-84 43 -198 43q-133 0 -202 -90 t-69 -260z" />
<glyph unicode="e" horiz-adv-x="1146" d="M84 516q0 264 135 414.5t383 150.5q229 0 341 -128t112 -361q0 -41 -4 -123h-697q0 -145 68 -219t225 -74q177 0 346 45l27 -190q-199 -60 -414 -60q-265 0 -393.5 134t-128.5 411zM354 639h441v20q0 106 -48 168q-53 68 -159 68q-111 0 -171 -75.5t-63 -180.5z" />
<glyph unicode="f" horiz-adv-x="712" d="M41 854v199h156v96q0 98 17 170.5t56 128.5t108 84.5t169 28.5q84 0 164 -17v-186h-99q-49 0 -80.5 -14.5t-47 -44t-20.5 -61.5t-5 -79v-106h217v-199h-217v-854h-262v854h-156z" />
<glyph unicode="g" horiz-adv-x="1236" d="M84 500q0 125 35 228t103.5 180t179 120t253.5 43q220 0 437 -70v-966q0 -249 -132 -364t-405 -115q-173 0 -326 30l9 195q149 -19 307 -19q154 0 219 51t65 185v123q-135 -129 -311 -129q-110 0 -194.5 39.5t-136 109.5t-77.5 160.5t-26 198.5zM360 526q0 -321 213 -321 q135 0 256 139v483q-86 39 -196 39q-131 0 -202 -89.5t-71 -250.5z" />
<glyph unicode="h" horiz-adv-x="1239" d="M143 0v1536h263v-598q74 72 149.5 107.5t177.5 35.5q186 0 276.5 -111t90.5 -306v-664h-262v610q0 125 -39.5 190.5t-132.5 65.5q-76 0 -130.5 -33.5t-129.5 -113.5v-719h-263z" />
<glyph unicode="i" horiz-adv-x="606" d="M33 854v199h428v-1053h-262v854h-166zM162 1366q0 70 45.5 114t116.5 44t116 -44t45 -114t-45 -114t-116 -44t-116.5 44t-45.5 114z" />
<glyph unicode="j" horiz-adv-x="579" d="M-47 -430l8 205h78q69 0 102 43.5t33 142.5v1092h262v-1069q0 -228 -86 -329t-250 -101q-81 0 -147 16zM143 1366q0 70 45 114t117 44q71 0 116.5 -44t45.5 -114t-45.5 -114t-116.5 -44q-72 0 -117 44t-45 114z" />
<glyph unicode="k" horiz-adv-x="1130" d="M143 0v1536h263v-850q196 210 335 367h322l-381 -371l422 -682h-316l-296 508l-86 -86v-422h-263z" />
<glyph unicode="l" horiz-adv-x="595" d="M143 225v1311h263v-1243q0 -54 18.5 -79.5t62.5 -25.5h72v-188q-90 -23 -164 -23q-118 0 -185 57t-67 191z" />
<glyph unicode="m" horiz-adv-x="1855" d="M143 0v1053h201l25 -135q78 87 153.5 125t184.5 38q232 0 307 -176q81 95 159.5 135.5t188.5 40.5q190 0 272 -108.5t82 -308.5v-664h-262v608q0 65 -6 108.5t-22 79.5t-47 53t-79 17q-39 0 -69 -8.5t-59.5 -30.5t-51.5 -43.5t-59 -64.5v-719h-262v610q0 65 -6 108 t-22 78.5t-47 52.5t-79 17q-39 0 -69 -8.5t-59.5 -30.5t-51.5 -43.5t-59 -64.5v-719h-263z" />
<glyph unicode="n" horiz-adv-x="1239" d="M143 0v1053h201l25 -133q87 87 166.5 124t189.5 37q192 0 283.5 -110.5t91.5 -306.5v-664h-262v610q0 125 -39.5 190.5t-132.5 65.5q-76 0 -130.5 -33.5t-129.5 -113.5v-719h-263z" />
<glyph unicode="o" horiz-adv-x="1251" d="M82 508q0 264 145.5 418.5t409.5 154.5q257 0 394.5 -144.5t137.5 -399.5q0 -259 -144.5 -412.5t-408.5 -153.5q-259 0 -396.5 142.5t-137.5 394.5zM356 535q0 -168 67.5 -261.5t207.5 -93.5q131 0 197.5 90t66.5 244q0 360 -274 360q-130 0 -197.5 -92.5t-67.5 -246.5z " />
<glyph unicode="p" horiz-adv-x="1236" d="M143 -418v1471h201l21 -138q77 82 162 124t196 42q108 0 191.5 -39.5t134.5 -110t76.5 -162t25.5 -200.5q0 -100 -20 -187t-63 -161t-106.5 -127t-153.5 -82.5t-200 -29.5q-97 0 -202 20v-420h-263zM406 231q88 -43 198 -43q134 0 203.5 90.5t69.5 260.5q0 329 -207 329 q-71 0 -132 -37t-132 -118v-482z" />
<glyph unicode="q" horiz-adv-x="1236" d="M84 483q0 130 34 236.5t102.5 185.5t179 122.5t255.5 43.5q220 0 437 -70v-1419h-263v522q-73 -69 -149.5 -101t-171.5 -32q-106 0 -188.5 40t-133 110.5t-76.5 162t-26 199.5zM360 514q0 -330 201 -330q73 0 137 38t131 118v487q-94 37 -196 37q-133 0 -203 -90.5 t-70 -259.5z" />
<glyph unicode="r" horiz-adv-x="796" d="M143 0v1053h205l25 -176q82 113 139 158.5t135 45.5q70 0 125 -14l-31 -248q-57 15 -108 15q-49 0 -99.5 -42t-127.5 -141v-651h-263z" />
<glyph unicode="s" horiz-adv-x="899" d="M86 12l37 209q136 -47 264 -47q77 0 121.5 31t44.5 90q0 50 -40 80.5t-138 62.5q-95 29 -154 65t-94 97t-35 148q0 153 108.5 243t301.5 90q139 0 264 -37l-31 -198q-112 39 -223 39q-78 0 -114 -34.5t-36 -82.5q0 -49 39 -77t142 -62q150 -47 217 -117t67 -193 q0 -158 -116.5 -253t-315.5 -95q-157 0 -309 41z" />
<glyph unicode="t" horiz-adv-x="761" d="M39 854v199h151l62 305h201v-305h231v-199h-231v-500q0 -101 32 -134.5t115 -33.5h84v-184q-73 -25 -205 -25q-138 0 -213.5 69t-75.5 228v580h-151z" />
<glyph unicode="u" horiz-adv-x="1239" d="M139 389v664h262v-611q0 -125 39.5 -190.5t132.5 -65.5q74 0 128.5 34t129.5 114v719h263v-1053h-199l-25 133q-87 -87 -167.5 -124.5t-190.5 -37.5q-192 0 -282.5 110.5t-90.5 307.5z" />
<glyph unicode="v" horiz-adv-x="1052" d="M35 1053h274q81 -342 191 -654q32 -99 41 -129h2q14 49 41 129q105 312 180 654h256q-137 -537 -344 -1053h-297q-214 518 -344 1053z" />
<glyph unicode="w" horiz-adv-x="1685" d="M43 1053h270q47 -251 150 -635q43 -151 45 -158h2l39 156l168 637h266l176 -639l39 -154h2q9 31 23.5 87t19.5 75q97 357 148 631h254q-112 -494 -314 -1053h-293l-170 612l-30 115h-2l-29 -115l-162 -612h-301q-196 557 -301 1053z" />
<glyph unicode="x" horiz-adv-x="1097" d="M37 0l325 543l-299 510h302l190 -348l195 348h282l-291 -500l320 -553h-307l-205 381l-213 -381h-299z" />
<glyph unicode="y" horiz-adv-x="1052" d="M37 1053h276q78 -324 195 -658q35 -109 43 -131h4q36 112 43 133q107 338 168 656h254q-167 -699 -338 -1053q-82 -170 -162 -269.5t-154.5 -137t-166.5 -37.5q-62 0 -144 24l6 193h125q57 0 103 48.5t112 178.5q-237 526 -364 1053z" />
<glyph unicode="z" horiz-adv-x="974" d="M88 0v201l473 641h-446v211h755v-203l-473 -639h504v-211h-813z" />
<glyph unicode="{" horiz-adv-x="765" d="M63 522v195q91 3 139 68t48 180v192q0 214 64.5 315t226.5 101q64 0 127 -17v-184h-72q-59 0 -80.5 -43.5t-21.5 -173.5v-184q0 -136 -53.5 -230t-170.5 -120q80 -18 131.5 -71.5t72 -123t20.5 -156.5v-233q0 -130 21.5 -173.5t80.5 -43.5h72v-185q-59 -16 -127 -16 q-163 0 -227 100.5t-64 315.5v239q0 116 -47.5 180.5t-139.5 67.5z" />
<glyph unicode="|" d="M440 -418v1979h246v-1979h-246z" />
<glyph unicode="}" horiz-adv-x="765" d="M98 -180h72q59 0 80.5 43.5t21.5 173.5v233q0 86 21 156t72.5 123.5t130.5 71.5q-116 26 -170 120.5t-54 229.5v184q0 130 -21.5 173.5t-80.5 43.5h-72v184q63 17 129 17q162 0 225.5 -100.5t63.5 -315.5v-192q0 -115 49 -180t140 -68v-195q-92 -3 -140.5 -67.5 t-48.5 -180.5v-239q0 -214 -64 -315t-225 -101q-70 0 -129 16v185z" />
<glyph unicode="~" d="M66 879v39q0 171 82 267.5t217 96.5q85 0 139 -29t104 -82q12 -13 32 -36.5t30 -34t25.5 -23t32 -17.5t36.5 -5q56 0 81 47.5t27 142.5h193v-39q0 -175 -82 -271.5t-217 -96.5q-86 0 -140 29.5t-104 84.5q-13 14 -39 43t-37.5 39.5t-33 21.5t-45.5 11q-56 0 -81.5 -47.5 t-27.5 -140.5h-192z" />
<glyph unicode="&#xa1;" horiz-adv-x="737" d="M166 1065q0 69 46.5 116.5t115.5 47.5t115 -47.5t46 -116.5q0 -68 -46 -115t-115 -47t-115.5 47t-46.5 115zM184 -330l31 1110h225l31 -1110h-287z" />
<glyph unicode="&#xa2;" d="M145 709q0 224 115 362.5t305 167.5v191h199v-181q130 -15 237 -65l-63 -199q-114 57 -229 57q-133 0 -213 -83t-80 -234q0 -160 76.5 -245t214.5 -85q130 0 254 66l55 -193q-130 -62 -252 -78v-190h-199v190q-199 24 -309.5 157t-110.5 362z" />
<glyph unicode="&#xa3;" d="M92 629v190h150q-25 167 -25 236q0 185 118.5 290t346.5 105q150 0 281 -27v-202q-130 26 -252 26q-124 0 -177 -46.5t-53 -141.5q0 -78 29 -240h373v-190h-338q21 -264 -133 -412h618v-217h-913v190q103 101 141.5 198t24.5 241h-191z" />
<glyph unicode="&#xa4;" d="M70 1159l206 107l123 -213q59 32 172 32q111 0 158 -30l121 209l207 -103l-146 -215q88 -112 88 -299q0 -186 -102 -309l158 -229l-207 -107l-131 227q-62 -32 -166 -32q-101 0 -150 24l-125 -219l-204 104l147 218q-98 112 -98 303q0 195 100 313zM358 649 q0 -264 209 -264q96 0 146.5 69t50.5 179q0 122 -50.5 194t-154.5 72q-97 0 -149 -70t-52 -180z" />
<glyph unicode="&#xa5;" d="M39 1430h276q106 -240 265 -488q130 200 241 488h266q-161 -368 -387 -695v-39h295v-161h-295v-177h295v-161h-295v-197h-266v197h-295v161h295v177h-295v161h295v39q-229 346 -395 695z" />
<glyph unicode="&#xa6;" d="M440 373h246v-791h-246v791zM440 811v784h246v-784h-246z" />
<glyph unicode="&#xa7;" horiz-adv-x="1198" d="M131 780q0 123 58.5 273t144.5 250q165 196 393 196q79 0 168 -14l-10 -201q-88 16 -166 16q-91 0 -130.5 -36t-39.5 -109q0 -42 28 -85.5t73.5 -85.5t100 -89t109 -105.5t100 -125t73.5 -157t28 -192.5q0 -123 -55.5 -273.5t-141.5 -244.5q-82 -101 -181.5 -150.5 t-236.5 -49.5q-84 0 -163 12l10 213q84 -19 180 -19q168 0 168 131q0 45 -28 92t-73 91t-99.5 93t-109 107.5t-99.5 124t-73 153.5t-28 185zM350 836q0 -73 22.5 -137.5t59 -113t81 -94t92 -89.5t88.5 -89.5t73 -104.5t43 -124q33 101 33 184q0 75 -23 141t-60 115.5t-83 95 t-94 89t-89.5 87.5t-73 100.5t-42.5 119.5q-27 -98 -27 -180z" />
<glyph unicode="&#xa8;" horiz-adv-x="843" d="M0 1382q0 59 36.5 96.5t96.5 37.5q61 0 98 -37.5t37 -96.5q0 -60 -37 -97.5t-98 -37.5q-60 0 -96.5 37.5t-36.5 97.5zM424 1382q0 59 37 96.5t98 37.5q58 0 95.5 -37.5t37.5 -96.5q0 -60 -37 -97.5t-96 -37.5q-61 0 -98 37.5t-37 97.5z" />
<glyph unicode="&#xa9;" horiz-adv-x="1595" d="M82 696q0 195 94.5 359t259 260t361.5 96t360.5 -94.5t256.5 -257t93 -357.5q0 -146 -55.5 -278t-150.5 -228.5t-227 -153t-279 -56.5q-199 0 -363 94.5t-257 257.5t-93 358zM266 702q0 -148 70 -272.5t192 -197t269 -72.5t268 71t189.5 193.5t68.5 271.5 q0 148 -69.5 272t-191 196.5t-267.5 72.5q-147 0 -268.5 -70.5t-191 -193.5t-69.5 -271zM457 684q0 188 102 287.5t272 99.5q95 0 187 -37l-47 -164q-67 25 -125 25q-81 0 -122.5 -51.5t-41.5 -145.5q0 -196 166 -196q62 0 141 28l37 -163q-104 -43 -221 -43 q-167 0 -257.5 91t-90.5 269z" />
<glyph unicode="&#xaa;" horiz-adv-x="935" d="M104 897q0 130 98 188t294 58h75v37q0 61 -34.5 89.5t-114.5 28.5q-122 0 -223 -43l-31 148q132 49 283 49q168 0 251.5 -62.5t83.5 -207.5v-494h-161l-21 90q-92 -110 -239 -110q-121 0 -191 57.5t-70 171.5zM131 362v183h657v-183h-657zM319 911q0 -42 27 -69t72 -27 q82 0 153 88v107h-82q-93 0 -131.5 -23t-38.5 -76z" />
<glyph unicode="&#xab;" horiz-adv-x="1208" d="M90 573l297 486l188 -70l-219 -416l219 -415l-188 -70zM539 573l288 459l187 -71l-213 -388l213 -387l-187 -71z" />
<glyph unicode="&#xac;" d="M66 545v205h964v-471h-215v266h-749z" />
<glyph unicode="&#xad;" horiz-adv-x="622" d="M78 444v213h536v-213h-536z" />
<glyph unicode="&#xae;" horiz-adv-x="1167" d="M104 1090q0 130 63 240t173.5 174.5t243.5 64.5q202 0 338.5 -137.5t136.5 -339.5q0 -129 -63 -240t-173.5 -176.5t-240.5 -65.5q-99 0 -188 37.5t-152.5 101.5t-100.5 153t-37 188zM248 1094q0 -148 99 -248.5t237 -100.5q145 0 238 99t93 241q0 149 -97 249t-236 100 q-145 0 -239.5 -99.5t-94.5 -240.5zM403 854v479h199q80 0 130 -34t50 -101q0 -101 -80 -137l95 -207h-152l-70 174h-40v-174h-132zM535 1126h36q76 0 76 62q0 51 -69 51h-43v-113z" />
<glyph unicode="&#xaf;" horiz-adv-x="626" d="M0 1290v174h586v-174h-586z" />
<glyph unicode="&#xb0;" horiz-adv-x="772" d="M86 1237q0 122 87 204.5t218 82.5t213 -78.5t82 -200.5t-86 -204.5t-217 -82.5q-134 0 -215.5 77.5t-81.5 201.5zM268 1243q0 -56 34.5 -92.5t86.5 -36.5q47 0 81 36.5t34 88.5q0 55 -34 92t-85 37q-49 0 -83 -36t-34 -89z" />
<glyph unicode="&#xb1;" d="M88 727v203h369v405h213v-405h368v-203h-368v-405h-213v405h-369zM102 0v205h922v-205h-922z" />
<glyph unicode="&#xb2;" horiz-adv-x="753" d="M59 793v149l197 188q79 76 113 134.5t34 124.5q0 118 -131 118q-90 0 -168 -32l-38 151q114 51 276 51q154 0 233.5 -65t79.5 -189q0 -96 -49.5 -174t-175.5 -190l-106 -96h354v-170h-619z" />
<glyph unicode="&#xb3;" horiz-adv-x="741" d="M63 1634q128 43 281 43q140 0 220.5 -63.5t80.5 -163.5q0 -76 -50 -130.5t-120 -70.5q85 -11 142 -69t57 -140q0 -123 -102 -199.5t-255 -76.5q-147 0 -249 22v150q79 -12 188 -12q170 0 170 114q0 123 -193 123h-79v144h84q80 0 128 31t48 85q0 47 -32.5 72t-94.5 25 q-107 0 -189 -33z" />
<glyph unicode="&#xb4;" horiz-adv-x="638" d="M0 1272l246 311l192 -117l-305 -280z" />
<glyph unicode="&#xb6;" horiz-adv-x="1271" d="M41 995q0 186 125.5 310.5t320.5 124.5h623v-1661h-205v1468h-194v-1468h-205v796q-202 -13 -333.5 110.5t-131.5 319.5z" />
<glyph unicode="&#xb7;" horiz-adv-x="579" d="M123 637q0 71 48 119.5t120 48.5q70 0 118 -48.5t48 -119.5t-48 -119.5t-118 -48.5q-72 0 -120 48.5t-48 119.5z" />
<glyph unicode="&#xb8;" horiz-adv-x="634" d="M88 -195h184q50 0 50 19q0 14 -11 43l-61 133h194l45 -86q50 -85 50 -141q0 -73 -60.5 -111.5t-173.5 -38.5q-121 0 -217 35v147z" />
<glyph unicode="&#xb9;" horiz-adv-x="589" d="M35 1524l225 135h193v-866h-230v649l-141 -74z" />
<glyph unicode="&#xba;" horiz-adv-x="978" d="M86 1047q0 189 104.5 298t298.5 109q191 0 291.5 -103t100.5 -282q0 -181 -107.5 -291t-296.5 -110q-193 0 -292 102t-99 277zM154 362v183h675v-183h-675zM309 1067q0 -236 178 -236q82 0 126 63t44 159q0 112 -44 175.5t-132 63.5q-86 0 -129 -61.5t-43 -163.5z" />
<glyph unicode="&#xbb;" horiz-adv-x="1208" d="M195 186l213 387l-213 388l186 71l289 -459l-289 -458zM633 158l219 415l-219 416l188 70l297 -486l-297 -485z" />
<glyph unicode="&#xbc;" horiz-adv-x="1447" d="M35 1303l239 133h175v-721h-230v499l-145 -73zM104 45l1047 1442l147 -98l-1048 -1444zM752 125v149l268 441h291v-434h102v-156h-102v-125h-199v125h-360zM922 281h190v303h-2z" />
<glyph unicode="&#xbd;" horiz-adv-x="1564" d="M35 1303l239 133h175v-721h-230v499l-145 -73zM104 45l1047 1442l147 -98l-1048 -1444zM911 0v152l160 141q75 67 106 112t31 87q0 86 -106 86q-76 0 -144 -33l-40 145q122 51 260 51q149 0 218.5 -57.5t69.5 -157.5q0 -76 -42 -140.5t-154 -149.5l-78 -60h297v-176h-578 z" />
<glyph unicode="&#xbe;" horiz-adv-x="1579" d="M63 1411q130 45 275 45q278 0 278 -192q0 -63 -33 -107t-96 -61q77 -10 117.5 -57.5t40.5 -114.5q0 -80 -44.5 -134t-116.5 -77t-169 -23q-132 0 -249 21v133q52 -8 178 -8q69 0 107 23.5t38 64.5q0 53 -40 73.5t-116 20.5h-90v133h95q66 0 102.5 24.5t36.5 67.5 q0 34 -27 53t-76 19q-87 0 -168 -33zM229 45l1047 1442l147 -98l-1048 -1444zM885 125v149l268 441h291v-434h102v-156h-102v-125h-199v125h-360zM1055 281h190v303h-2z" />
<glyph unicode="&#xbf;" horiz-adv-x="960" d="M94 14q0 70 20.5 131.5t52 108.5t70 91.5t75 89.5t65.5 93.5t43.5 113t7.5 138.5h231q13 -92 5 -158.5t-33 -124.5t-57 -99.5t-67.5 -84.5t-65 -79t-49 -82t-19.5 -95q0 -96 55 -146t180 -50q113 0 223 14v-194q-125 -33 -264 -33q-244 0 -358.5 96t-114.5 270zM379 1065 q0 69 46.5 116.5t115.5 47.5t116.5 -47.5t47.5 -116.5q0 -68 -47.5 -115t-116.5 -47t-115.5 47t-46.5 115z" />
<glyph unicode="&#xc0;" horiz-adv-x="1398" d="M37 0q216 723 500 1430h321q288 -708 504 -1430h-307q-64 228 -97 334h-550q-24 -76 -99 -334h-272zM330 1661l94 176l387 -184l-72 -131zM469 545h432q-67 212 -170 493q-5 15 -21 60t-24 69h-2q-25 -75 -45 -129q-105 -292 -170 -493z" />
<glyph unicode="&#xc1;" horiz-adv-x="1398" d="M37 0q216 723 500 1430h321q288 -708 504 -1430h-307q-64 228 -97 334h-550q-24 -76 -99 -334h-272zM469 545h432q-67 212 -170 493q-5 15 -21 60t-24 69h-2q-25 -75 -45 -129q-105 -292 -170 -493zM543 1653l387 184l94 -176l-408 -139z" />
<glyph unicode="&#xc2;" horiz-adv-x="1398" d="M37 0q216 723 500 1430h321q288 -708 504 -1430h-307q-64 228 -97 334h-550q-24 -76 -99 -334h-272zM379 1651l311 180l314 -178l-68 -127l-248 116l-244 -116zM469 545h432q-67 212 -170 493q-5 15 -21 60t-24 69h-2q-25 -75 -45 -129q-105 -292 -170 -493z" />
<glyph unicode="&#xc3;" horiz-adv-x="1398" d="M37 0q216 723 500 1430h321q288 -708 504 -1430h-307q-64 228 -97 334h-550q-24 -76 -99 -334h-272zM295 1602q31 90 96 139t152 49q50 0 92 -13t66.5 -29t57 -29t64.5 -13q73 0 119 94l125 -76q-31 -89 -96.5 -137.5t-153.5 -48.5q-49 0 -91.5 13t-66.5 29t-56.5 29 t-65.5 13q-72 0 -117 -96zM469 545h432q-67 212 -170 493q-5 15 -21 60t-24 69h-2q-25 -75 -45 -129q-105 -292 -170 -493z" />
<glyph unicode="&#xc4;" horiz-adv-x="1398" d="M37 0q216 723 500 1430h321q288 -708 504 -1430h-307q-64 228 -97 334h-550q-24 -76 -99 -334h-272zM338 1657q0 57 35.5 93t91.5 36q57 0 93 -36t36 -93q0 -56 -36 -91.5t-93 -35.5q-55 0 -91 36t-36 91zM469 545h432q-67 212 -170 493q-5 15 -21 60t-24 69h-2 q-25 -75 -45 -129q-105 -292 -170 -493zM786 1657q0 57 35.5 93t91.5 36q57 0 93 -36t36 -93q0 -56 -36 -91.5t-93 -35.5q-55 0 -91 36t-36 91z" />
<glyph unicode="&#xc5;" horiz-adv-x="1398" d="M37 0q216 723 500 1430h321q288 -708 504 -1430h-307q-64 228 -97 334h-550q-24 -76 -99 -334h-272zM455 1733q0 103 64.5 163t182.5 60q117 0 178.5 -56.5t61.5 -156.5t-65.5 -160.5t-182.5 -60.5q-119 0 -179 56t-60 155zM469 545h432q-67 212 -170 493q-5 15 -21 60 t-24 69h-2q-25 -75 -45 -129q-105 -292 -170 -493zM606 1743q0 -57 22 -84t72 -27q45 0 68 29t23 74q0 110 -95 110q-44 0 -67 -28t-23 -74z" />
<glyph unicode="&#xc6;" horiz-adv-x="1800" d="M-25 0q307 690 713 1430h975v-218h-549v-366h483v-213h-483v-416h567v-217h-839v305h-463q-71 -157 -135 -305h-269zM471 516h371v703h-11q-230 -443 -360 -703z" />
<glyph unicode="&#xc7;" horiz-adv-x="1198" d="M94 694q0 356 185.5 558t494.5 202q205 0 375 -80l-82 -213q-136 62 -287 62q-182 0 -287.5 -140.5t-105.5 -367.5q0 -252 113 -379t311 -127q141 0 276 61l68 -211q-128 -62 -303 -79l35 -66q47 -84 47 -141q0 -73 -60.5 -111.5t-173.5 -38.5q-117 0 -217 35v147h185 q51 0 51 19t-12 43l-56 119q-264 31 -410.5 213t-146.5 495z" />
<glyph unicode="&#xc8;" horiz-adv-x="1120" d="M162 0v1430h831v-218h-559v-366h484v-213h-484v-416h567v-217h-839zM233 1661l95 176l387 -184l-72 -131z" />
<glyph unicode="&#xc9;" horiz-adv-x="1120" d="M162 0v1430h831v-218h-559v-366h484v-213h-484v-416h567v-217h-839zM389 1653l387 184l94 -176l-407 -139z" />
<glyph unicode="&#xca;" horiz-adv-x="1120" d="M162 0v1430h831v-218h-559v-366h484v-213h-484v-416h567v-217h-839zM258 1651l311 180l314 -178l-68 -127l-248 116l-243 -116z" />
<glyph unicode="&#xcb;" horiz-adv-x="1120" d="M162 0v1430h831v-218h-559v-366h484v-213h-484v-416h567v-217h-839zM225 1657q0 57 35.5 93t91.5 36q57 0 93 -36t36 -93q0 -56 -36 -91.5t-93 -35.5q-56 0 -91.5 36t-35.5 91zM674 1657q0 57 35.5 93t91.5 36q57 0 93 -36t36 -93q0 -56 -36 -91.5t-93 -35.5 q-55 0 -91 36t-36 91z" />
<glyph unicode="&#xcc;" horiz-adv-x="598" d="M0 1661l94 176l387 -184l-71 -131zM162 0v1430h274v-1430h-274z" />
<glyph unicode="&#xcd;" horiz-adv-x="598" d="M102 1653l387 184l95 -176l-408 -139zM162 0v1430h274v-1430h-274z" />
<glyph unicode="&#xce;" horiz-adv-x="598" d="M-12 1651l311 180l313 -178l-67 -127l-248 116l-244 -116zM162 0v1430h274v-1430h-274z" />
<glyph unicode="&#xcf;" horiz-adv-x="598" d="M-29 1657q0 57 35.5 93t91.5 36q57 0 93 -36t36 -93q0 -56 -36 -91.5t-93 -35.5q-56 0 -91.5 36t-35.5 91zM162 0v1430h274v-1430h-274zM371 1657q0 57 35.5 93t91.5 36q57 0 93 -36t36 -93q0 -56 -36 -91.5t-93 -35.5q-56 0 -91.5 36t-35.5 91z" />
<glyph unicode="&#xd0;" horiz-adv-x="1468" d="M25 612v207h157v611h486q343 0 527.5 -179t184.5 -516q0 -364 -195 -549.5t-546 -185.5h-457v612h-157zM455 219h192q447 0 447 502q0 109 -25.5 196.5t-77.5 154.5t-139 103.5t-203 36.5h-194v-393h264v-207h-264v-393z" />
<glyph unicode="&#xd1;" horiz-adv-x="1480" d="M162 0v1430h362l547 -1039h4v1039h244v-1430h-350l-559 1061h-4v-1061h-244zM352 1602q31 90 96 139t152 49q50 0 92 -13t67 -29t57.5 -29t64.5 -13q72 0 118 94l125 -76q-31 -89 -96.5 -137.5t-153.5 -48.5q-49 0 -91.5 13t-66.5 29t-56.5 29t-65.5 13q-72 0 -117 -96z " />
<glyph unicode="&#xd2;" horiz-adv-x="1576" d="M94 707q0 228 80 396.5t239 261.5t382 93q332 0 510 -188.5t178 -540.5q0 -356 -180.5 -557t-522.5 -201q-340 0 -513 185.5t-173 550.5zM385 731q0 -126 21.5 -220.5t68.5 -166t128.5 -108.5t195.5 -37q87 0 155 26.5t112 72.5t73 111t41 138t12 158q0 120 -21.5 213 t-68.5 165t-128.5 110t-195.5 38q-86 0 -154 -26.5t-112 -72t-73 -110t-41.5 -136.5t-12.5 -155zM436 1661l94 176l388 -184l-72 -131z" />
<glyph unicode="&#xd3;" horiz-adv-x="1576" d="M94 707q0 228 80 396.5t239 261.5t382 93q332 0 510 -188.5t178 -540.5q0 -356 -180.5 -557t-522.5 -201q-340 0 -513 185.5t-173 550.5zM385 731q0 -126 21.5 -220.5t68.5 -166t128.5 -108.5t195.5 -37q87 0 155 26.5t112 72.5t73 111t41 138t12 158q0 120 -21.5 213 t-68.5 165t-128.5 110t-195.5 38q-86 0 -154 -26.5t-112 -72t-73 -110t-41.5 -136.5t-12.5 -155zM664 1653l387 184l94 -176l-408 -139z" />
<glyph unicode="&#xd4;" horiz-adv-x="1576" d="M94 707q0 228 80 396.5t239 261.5t382 93q332 0 510 -188.5t178 -540.5q0 -356 -180.5 -557t-522.5 -201q-340 0 -513 185.5t-173 550.5zM385 731q0 -126 21.5 -220.5t68.5 -166t128.5 -108.5t195.5 -37q87 0 155 26.5t112 72.5t73 111t41 138t12 158q0 120 -21.5 213 t-68.5 165t-128.5 110t-195.5 38q-86 0 -154 -26.5t-112 -72t-73 -110t-41.5 -136.5t-12.5 -155zM477 1651l311 180l314 -178l-68 -127l-248 116l-243 -116z" />
<glyph unicode="&#xd5;" horiz-adv-x="1576" d="M94 707q0 228 80 396.5t239 261.5t382 93q332 0 510 -188.5t178 -540.5q0 -356 -180.5 -557t-522.5 -201q-340 0 -513 185.5t-173 550.5zM385 731q0 -126 21.5 -220.5t68.5 -166t128.5 -108.5t195.5 -37q87 0 155 26.5t112 72.5t73 111t41 138t12 158q0 120 -21.5 213 t-68.5 165t-128.5 110t-195.5 38q-86 0 -154 -26.5t-112 -72t-73 -110t-41.5 -136.5t-12.5 -155zM393 1602q31 90 96 139t152 49q50 0 92 -13t67 -29t57.5 -29t64.5 -13q72 0 118 94l125 -76q-31 -89 -96.5 -137.5t-153.5 -48.5q-49 0 -91.5 13t-66.5 29t-56.5 29t-65.5 13 q-72 0 -117 -96z" />
<glyph unicode="&#xd6;" horiz-adv-x="1576" d="M94 707q0 228 80 396.5t239 261.5t382 93q332 0 510 -188.5t178 -540.5q0 -356 -180.5 -557t-522.5 -201q-340 0 -513 185.5t-173 550.5zM385 731q0 -126 21.5 -220.5t68.5 -166t128.5 -108.5t195.5 -37q87 0 155 26.5t112 72.5t73 111t41 138t12 158q0 120 -21.5 213 t-68.5 165t-128.5 110t-195.5 38q-86 0 -154 -26.5t-112 -72t-73 -110t-41.5 -136.5t-12.5 -155zM434 1657q0 57 35.5 93t91.5 36q57 0 93 -36t36 -93q0 -56 -36 -91.5t-93 -35.5q-55 0 -91 36t-36 91zM883 1657q0 57 35.5 93t91.5 36q57 0 93 -36t36 -93q0 -56 -36 -91.5 t-93 -35.5q-56 0 -91.5 36t-35.5 91z" />
<glyph unicode="&#xd7;" d="M86 301l338 336l-336 336l141 141l336 -336l336 336l141 -139l-337 -338l337 -336l-141 -141l-336 338l-336 -338z" />
<glyph unicode="&#xd8;" horiz-adv-x="1576" d="M94 707q0 228 80 396.5t239 261.5t382 93q145 0 268 -49l115 217l165 -80l-112 -213q123 -90 187.5 -243.5t64.5 -360.5q0 -356 -181 -557t-524 -201q-133 0 -252 39l-129 -248l-166 80l127 240q-264 174 -264 625zM373 731q0 -278 110 -401l475 878q-73 37 -180 37 q-90 0 -160 -27.5t-115.5 -74t-75 -113t-42 -140t-12.5 -159.5zM631 215q70 -31 168 -31q90 0 160 27.5t116 75t76 115t42.5 142t12.5 161.5q0 255 -102 382z" />
<glyph unicode="&#xd9;" horiz-adv-x="1470" d="M160 518v912h274v-889q0 -167 82 -255.5t223 -88.5q142 0 222.5 87t80.5 244v902h269v-893q0 -267 -151 -415.5t-429 -148.5q-272 0 -421.5 138.5t-149.5 406.5zM354 1661l95 176l387 -184l-72 -131z" />
<glyph unicode="&#xda;" horiz-adv-x="1470" d="M160 518v912h274v-889q0 -167 82 -255.5t223 -88.5q142 0 222.5 87t80.5 244v902h269v-893q0 -267 -151 -415.5t-429 -148.5q-272 0 -421.5 138.5t-149.5 406.5zM657 1653l387 184l95 -176l-408 -139z" />
<glyph unicode="&#xdb;" horiz-adv-x="1470" d="M160 518v912h274v-889q0 -167 82 -255.5t223 -88.5q142 0 222.5 87t80.5 244v902h269v-893q0 -267 -151 -415.5t-429 -148.5q-272 0 -421.5 138.5t-149.5 406.5zM434 1651l311 180l314 -178l-68 -127l-248 116l-243 -116z" />
<glyph unicode="&#xdc;" horiz-adv-x="1470" d="M160 518v912h274v-889q0 -167 82 -255.5t223 -88.5q142 0 222.5 87t80.5 244v902h269v-893q0 -267 -151 -415.5t-429 -148.5q-272 0 -421.5 138.5t-149.5 406.5zM385 1657q0 57 35.5 93t91.5 36q57 0 93 -36t36 -93q0 -56 -36 -91.5t-93 -35.5q-56 0 -91.5 36t-35.5 91z M834 1657q0 57 35.5 93t91.5 36q57 0 93 -36t36 -93q0 -56 -36 -91.5t-93 -35.5q-55 0 -91 36t-36 91z" />
<glyph unicode="&#xdd;" horiz-adv-x="1224" d="M12 1430h310q133 -331 305 -615q179 292 297 615h288q-196 -473 -460 -855v-575h-275v575q-260 390 -465 855zM516 1653l387 184l94 -176l-407 -139z" />
<glyph unicode="&#xde;" horiz-adv-x="1198" d="M162 0v1430h274v-232h139q124 0 203 -16q164 -33 255 -140.5t91 -277.5q0 -236 -141 -364t-399 -128h-148v-272h-274zM436 487h162q118 0 178 69t60 187q0 89 -39 148.5t-113 81.5q-42 12 -115 12h-133v-498z" />
<glyph unicode="&#xdf;" horiz-adv-x="1249" d="M145 0v1036q0 247 127 386t369 139q210 0 321 -95.5t111 -238.5q0 -62 -18.5 -109.5t-46 -74.5t-59.5 -52t-59.5 -43t-46 -47t-18.5 -65q0 -38 20.5 -69t53.5 -55t73 -47.5t79.5 -53t72.5 -65t53.5 -90.5t20.5 -122q0 -157 -109 -258t-298 -101q-128 0 -230 31l31 207 q90 -33 174 -33q76 0 117 37.5t41 91.5q0 42 -20 75.5t-52 57.5t-70.5 47t-77.5 50t-71 60.5t-52 85.5t-20 118q0 65 25 117t60.5 84.5t71 61.5t60.5 64t25 76q0 64 -44.5 108t-133.5 44q-118 0 -167.5 -79.5t-49.5 -219.5v-1059h-263z" />
<glyph unicode="&#xe0;" horiz-adv-x="1132" d="M78 293q0 342 526 342h127v55q0 102 -48 148.5t-171 46.5q-155 0 -309 -62l-45 191q182 67 391 67q229 0 334.5 -93.5t105.5 -272.5v-715h-198l-21 100q-141 -129 -332 -129q-166 0 -263 83t-97 239zM248 1464l188 119l244 -303l-137 -94zM340 307q0 -68 41 -106.5 t119 -38.5q115 0 231 104v199h-131q-260 0 -260 -158z" />
<glyph unicode="&#xe1;" horiz-adv-x="1132" d="M78 293q0 342 526 342h127v55q0 102 -48 148.5t-171 46.5q-155 0 -309 -62l-45 191q182 67 391 67q229 0 334.5 -93.5t105.5 -272.5v-715h-198l-21 100q-141 -129 -332 -129q-166 0 -263 83t-97 239zM340 307q0 -68 41 -106.5t119 -38.5q115 0 231 104v199h-131 q-260 0 -260 -158zM414 1272l245 311l193 -117l-305 -280z" />
<glyph unicode="&#xe2;" horiz-adv-x="1132" d="M78 293q0 342 526 342h127v55q0 102 -48 148.5t-171 46.5q-155 0 -309 -62l-45 191q182 67 391 67q229 0 334.5 -93.5t105.5 -272.5v-715h-198l-21 100q-141 -129 -332 -129q-166 0 -263 83t-97 239zM252 1305l315 282l320 -282l-99 -117l-223 174l-223 -174zM340 307 q0 -68 41 -106.5t119 -38.5q115 0 231 104v199h-131q-260 0 -260 -158z" />
<glyph unicode="&#xe3;" horiz-adv-x="1132" d="M78 293q0 342 526 342h127v55q0 102 -48 148.5t-171 46.5q-155 0 -309 -62l-45 191q182 67 391 67q229 0 334.5 -93.5t105.5 -272.5v-715h-198l-21 100q-141 -129 -332 -129q-166 0 -263 83t-97 239zM190 1313q31 97 92.5 148.5t147.5 51.5q49 0 90.5 -13.5t65.5 -30.5 t56.5 -30.5t64.5 -13.5q70 0 116 101l117 -82q-31 -96 -93.5 -148.5t-146.5 -52.5q-49 0 -90.5 13.5t-65.5 30.5t-56.5 30.5t-65.5 13.5q-70 0 -115 -98zM340 307q0 -68 41 -106.5t119 -38.5q115 0 231 104v199h-131q-260 0 -260 -158z" />
<glyph unicode="&#xe4;" horiz-adv-x="1132" d="M78 293q0 342 526 342h127v55q0 102 -48 148.5t-171 46.5q-155 0 -309 -62l-45 191q182 67 391 67q229 0 334.5 -93.5t105.5 -272.5v-715h-198l-21 100q-141 -129 -332 -129q-166 0 -263 83t-97 239zM229 1382q0 59 36.5 96.5t96.5 37.5q61 0 98.5 -37.5t37.5 -96.5 q0 -60 -37.5 -97.5t-98.5 -37.5q-60 0 -96.5 37.5t-36.5 97.5zM340 307q0 -68 41 -106.5t119 -38.5q115 0 231 104v199h-131q-260 0 -260 -158zM653 1382q0 59 37 96.5t98 37.5q58 0 96 -38t38 -96q0 -60 -37.5 -97.5t-96.5 -37.5q-61 0 -98 37.5t-37 97.5z" />
<glyph unicode="&#xe5;" horiz-adv-x="1132" d="M78 293q0 342 526 342h127v55q0 102 -48 148.5t-171 46.5q-155 0 -309 -62l-45 191q182 67 391 67q229 0 334.5 -93.5t105.5 -272.5v-715h-198l-21 100q-141 -129 -332 -129q-166 0 -263 83t-97 239zM317 1393q0 104 64.5 163.5t183.5 59.5q117 0 178.5 -55.5 t61.5 -155.5q0 -101 -65.5 -161t-182.5 -60q-119 0 -179.5 56t-60.5 153zM340 307q0 -68 41 -106.5t119 -38.5q115 0 231 104v199h-131q-260 0 -260 -158zM469 1403q0 -56 22 -82.5t72 -26.5q45 0 67.5 28t22.5 75q0 108 -94 108q-44 0 -67 -28t-23 -74z" />
<glyph unicode="&#xe6;" horiz-adv-x="1775" d="M78 293q0 344 518 344h127v53q0 104 -45.5 150.5t-169.5 46.5q-146 0 -305 -64l-45 191q182 67 387 67q249 0 346 -135q118 135 340 135q229 0 339.5 -125.5t110.5 -357.5q0 -41 -4 -131h-694q0 -144 67.5 -218.5t223.5 -74.5q168 0 348 47l27 -190q-199 -60 -416 -60 q-282 0 -406 156q-89 -80 -178.5 -118t-218.5 -38q-165 0 -258.5 82.5t-93.5 239.5zM340 309q0 -68 39.5 -107.5t112.5 -39.5q68 0 121.5 30t109.5 87v188h-131q-252 0 -252 -158zM983 637h440q5 121 -48.5 189.5t-160.5 68.5q-110 0 -169.5 -76t-61.5 -182z" />
<glyph unicode="&#xe7;" horiz-adv-x="931" d="M82 506q0 271 141.5 420t378.5 149q152 0 270 -55l-57 -195q-93 41 -192 41q-134 0 -200.5 -89.5t-66.5 -248.5q0 -335 271 -335q109 0 207 43l45 -197q-103 -43 -207 -55l37 -70q49 -84 49 -141q0 -73 -60.5 -111.5t-173.5 -38.5q-117 0 -217 35v147h185q49 0 49 19 q0 14 -11 43l-53 117q-198 26 -296.5 161.5t-98.5 360.5z" />
<glyph unicode="&#xe8;" horiz-adv-x="1146" d="M84 516q0 264 135 414.5t383 150.5q229 0 341 -128t112 -361q0 -41 -4 -123h-697q0 -145 68 -219t225 -74q177 0 346 45l27 -190q-199 -60 -414 -60q-265 0 -393.5 134t-128.5 411zM289 1464l188 119l244 -303l-137 -94zM354 639h441q5 120 -48 188t-159 68 q-111 0 -171 -75.5t-63 -180.5z" />
<glyph unicode="&#xe9;" horiz-adv-x="1146" d="M84 516q0 264 135 414.5t383 150.5q229 0 341 -128t112 -361q0 -41 -4 -123h-697q0 -145 68 -219t225 -74q177 0 346 45l27 -190q-199 -60 -414 -60q-265 0 -393.5 134t-128.5 411zM354 639h441q5 120 -48 188t-159 68q-111 0 -171 -75.5t-63 -180.5zM457 1272l245 311 l193 -117l-305 -280z" />
<glyph unicode="&#xea;" horiz-adv-x="1146" d="M84 516q0 264 135 414.5t383 150.5q229 0 341 -128t112 -361q0 -41 -4 -123h-697q0 -145 68 -219t225 -74q177 0 346 45l27 -190q-199 -60 -414 -60q-265 0 -393.5 134t-128.5 411zM272 1305l316 282l319 -282l-98 -117l-223 174l-224 -174zM354 639h441q5 120 -48 188 t-159 68q-111 0 -171 -75.5t-63 -180.5z" />
<glyph unicode="&#xeb;" horiz-adv-x="1146" d="M84 516q0 264 135 414.5t383 150.5q229 0 341 -128t112 -361q0 -41 -4 -123h-697q0 -145 68 -219t225 -74q177 0 346 45l27 -190q-199 -60 -414 -60q-265 0 -393.5 134t-128.5 411zM244 1382q0 59 36.5 96.5t96.5 37.5q61 0 98 -37.5t37 -96.5q0 -60 -37 -97.5t-98 -37.5 q-60 0 -96.5 37.5t-36.5 97.5zM354 639h441q5 120 -48 188t-159 68q-111 0 -171 -75.5t-63 -180.5zM668 1382q0 59 37 96.5t98 37.5q58 0 95.5 -37.5t37.5 -96.5q0 -60 -37 -97.5t-96 -37.5q-61 0 -98 37.5t-37 97.5z" />
<glyph unicode="&#xec;" horiz-adv-x="606" d="M0 1464l188 119l244 -303l-137 -94zM33 854v199h428v-1053h-262v854h-166z" />
<glyph unicode="&#xed;" horiz-adv-x="606" d="M33 854v199h428v-1053h-262v854h-166zM121 1272l246 311l192 -117l-305 -280z" />
<glyph unicode="&#xee;" horiz-adv-x="606" d="M0 1305l315 282l320 -282l-98 -117l-224 174l-223 -174zM33 854v199h428v-1053h-262v854h-166z" />
<glyph unicode="&#xef;" horiz-adv-x="606" d="M-25 1382q0 59 37.5 96.5t98.5 37.5t97 -37.5t36 -96.5q0 -61 -36 -98t-97 -37t-98.5 37.5t-37.5 97.5zM33 854v199h428v-1053h-262v854h-166zM375 1382q0 59 37.5 96.5t97.5 37.5t96.5 -37.5t36.5 -96.5q0 -60 -36.5 -97.5t-96.5 -37.5t-97.5 37.5t-37.5 97.5z" />
<glyph unicode="&#xf0;" horiz-adv-x="1249" d="M88 514q0 247 139 397t365 150q77 0 141 -31q-50 98 -123 189l-198 -70l-88 139l182 64q-29 35 -133 139l262 74q45 -43 129 -135l240 79l88 -137l-222 -78q269 -356 269 -727q0 -276 -146 -436t-399 -160q-129 0 -227 40t-158.5 113.5t-90.5 171.5t-30 218zM358 539 q0 -175 66 -269t190 -94q120 0 189 91.5t69 269.5q0 136 -38 260q-110 61 -224 61q-122 0 -187 -92.5t-65 -226.5z" />
<glyph unicode="&#xf1;" horiz-adv-x="1239" d="M143 0v1053h201l25 -133q87 87 166.5 124t189.5 37q192 0 283.5 -110.5t91.5 -306.5v-664h-262v610q0 125 -39.5 190.5t-132.5 65.5q-76 0 -130.5 -33.5t-129.5 -113.5v-719h-263zM246 1313q31 97 92 148.5t147 51.5q49 0 90.5 -13.5t65.5 -30.5t56.5 -30.5t64.5 -13.5 q71 0 117 101l116 -82q-31 -96 -93 -148.5t-146 -52.5q-49 0 -90.5 13.5t-66 30.5t-57 30.5t-65.5 13.5q-70 0 -115 -98z" />
<glyph unicode="&#xf2;" horiz-adv-x="1251" d="M82 508q0 264 145.5 418.5t409.5 154.5q257 0 394.5 -144.5t137.5 -399.5q0 -259 -144.5 -412.5t-408.5 -153.5q-259 0 -396.5 142.5t-137.5 394.5zM334 1464l188 119l244 -303l-137 -94zM356 535q0 -168 67.5 -261.5t207.5 -93.5q131 0 197.5 90t66.5 244 q0 360 -274 360q-130 0 -197.5 -92.5t-67.5 -246.5z" />
<glyph unicode="&#xf3;" horiz-adv-x="1251" d="M82 508q0 264 145.5 418.5t409.5 154.5q257 0 394.5 -144.5t137.5 -399.5q0 -259 -144.5 -412.5t-408.5 -153.5q-259 0 -396.5 142.5t-137.5 394.5zM356 535q0 -168 67.5 -261.5t207.5 -93.5q131 0 197.5 90t66.5 244q0 360 -274 360q-130 0 -197.5 -92.5t-67.5 -246.5z M483 1272l246 311l193 -117l-306 -280z" />
<glyph unicode="&#xf4;" horiz-adv-x="1251" d="M82 508q0 264 145.5 418.5t409.5 154.5q257 0 394.5 -144.5t137.5 -399.5q0 -259 -144.5 -412.5t-408.5 -153.5q-259 0 -396.5 142.5t-137.5 394.5zM309 1305l316 282l319 -282l-98 -117l-223 174l-224 -174zM356 535q0 -168 67.5 -261.5t207.5 -93.5q131 0 197.5 90 t66.5 244q0 360 -274 360q-130 0 -197.5 -92.5t-67.5 -246.5z" />
<glyph unicode="&#xf5;" horiz-adv-x="1251" d="M82 508q0 264 145.5 418.5t409.5 154.5q257 0 394.5 -144.5t137.5 -399.5q0 -259 -144.5 -412.5t-408.5 -153.5q-259 0 -396.5 142.5t-137.5 394.5zM254 1313q31 97 92.5 148.5t147.5 51.5q62 0 110 -22t87 -44t79 -22q71 0 117 101l117 -82q-31 -96 -93.5 -148.5 t-146.5 -52.5q-49 0 -90.5 13.5t-66 30.5t-57 30.5t-65.5 13.5q-69 0 -114 -98zM356 535q0 -168 67.5 -261.5t207.5 -93.5q131 0 197.5 90t66.5 244q0 360 -274 360q-130 0 -197.5 -92.5t-67.5 -246.5z" />
<glyph unicode="&#xf6;" horiz-adv-x="1251" d="M82 508q0 264 145.5 418.5t409.5 154.5q257 0 394.5 -144.5t137.5 -399.5q0 -259 -144.5 -412.5t-408.5 -153.5q-259 0 -396.5 142.5t-137.5 394.5zM283 1382q0 59 36.5 96.5t96.5 37.5q61 0 98 -37.5t37 -96.5q0 -60 -37 -97.5t-98 -37.5q-60 0 -96.5 37.5t-36.5 97.5z M356 535q0 -168 67.5 -261.5t207.5 -93.5q131 0 197.5 90t66.5 244q0 360 -274 360q-130 0 -197.5 -92.5t-67.5 -246.5zM707 1382q0 59 37 96.5t98 37.5q58 0 95.5 -37.5t37.5 -96.5q0 -60 -37 -97.5t-96 -37.5q-61 0 -98 37.5t-37 97.5z" />
<glyph unicode="&#xf7;" d="M57 532v205h1000v-205h-1000zM393 217q0 69 47.5 116.5t116.5 47.5q70 0 117 -47.5t47 -116.5t-47.5 -116.5t-116.5 -47.5t-116.5 47.5t-47.5 116.5zM393 1055q0 69 47.5 116.5t116.5 47.5t116.5 -47.5t47.5 -116.5t-47 -116.5t-117 -47.5q-69 0 -116.5 47.5t-47.5 116.5 z" />
<glyph unicode="&#xf8;" horiz-adv-x="1251" d="M82 510q0 264 145 417.5t410 153.5q103 0 188 -30l121 221l150 -64l-123 -221q196 -140 196 -448q0 -254 -148 -411t-407 -157q-91 0 -184 27l-121 -219l-149 63l121 219q-199 136 -199 449zM338 537q0 -166 68 -246l323 575q-45 25 -106 25q-142 0 -213.5 -96.5 t-71.5 -257.5zM526 182q44 -18 109 -18q138 0 208 96.5t70 253.5q0 159 -65 244z" />
<glyph unicode="&#xf9;" horiz-adv-x="1239" d="M139 389v664h262v-611q0 -125 39.5 -190.5t132.5 -65.5q74 0 128.5 34t129.5 114v719h263v-1053h-199l-25 133q-87 -87 -167.5 -124.5t-190.5 -37.5q-192 0 -282.5 110.5t-90.5 307.5zM338 1464l188 119l244 -303l-137 -94z" />
<glyph unicode="&#xfa;" horiz-adv-x="1239" d="M139 389v664h262v-611q0 -125 39.5 -190.5t132.5 -65.5q74 0 128.5 34t129.5 114v719h263v-1053h-199l-25 133q-87 -87 -167.5 -124.5t-190.5 -37.5q-192 0 -282.5 110.5t-90.5 307.5zM512 1272l246 311l192 -117l-305 -280z" />
<glyph unicode="&#xfb;" horiz-adv-x="1239" d="M139 389v664h262v-611q0 -125 39.5 -190.5t132.5 -65.5q74 0 128.5 34t129.5 114v719h263v-1053h-199l-25 133q-87 -87 -167.5 -124.5t-190.5 -37.5q-192 0 -282.5 110.5t-90.5 307.5zM319 1305l316 282l319 -282l-98 -117l-223 174l-223 -174z" />
<glyph unicode="&#xfc;" horiz-adv-x="1239" d="M139 389v664h262v-611q0 -125 39.5 -190.5t132.5 -65.5q74 0 128.5 34t129.5 114v719h263v-1053h-199l-25 133q-87 -87 -167.5 -124.5t-190.5 -37.5q-192 0 -282.5 110.5t-90.5 307.5zM295 1382q0 59 36.5 96.5t96.5 37.5q61 0 98 -37.5t37 -96.5q0 -60 -37 -97.5 t-98 -37.5q-60 0 -96.5 37.5t-36.5 97.5zM719 1382q0 59 37 96.5t98 37.5q58 0 95.5 -37.5t37.5 -96.5q0 -60 -37 -97.5t-96 -37.5q-61 0 -98 37.5t-37 97.5z" />
<glyph unicode="&#xfd;" horiz-adv-x="1052" d="M37 1053h276q78 -324 195 -658q35 -109 43 -131h4q36 112 43 133q107 338 168 656h254q-167 -699 -338 -1053q-82 -170 -162 -269.5t-154.5 -137t-166.5 -37.5q-62 0 -144 24l6 193h125q57 0 103 48.5t112 178.5q-237 526 -364 1053zM412 1272l245 311l193 -117 l-305 -280z" />
<glyph unicode="&#xfe;" horiz-adv-x="1236" d="M143 -418v1954h263v-584q139 129 313 129q110 0 194 -40t135.5 -110.5t77 -161.5t25.5 -200q0 -100 -20 -187t-63 -161t-106.5 -127t-153.5 -82.5t-200 -29.5q-108 0 -202 18v-418h-263zM406 231q88 -43 198 -43q134 0 203.5 90.5t69.5 260.5q0 329 -213 329 q-138 0 -258 -141v-496z" />
<glyph unicode="&#xff;" horiz-adv-x="1052" d="M37 1053h276q78 -324 195 -658q35 -109 43 -131h4q36 112 43 133q107 338 168 656h254q-167 -699 -338 -1053q-82 -170 -162 -269.5t-154.5 -137t-166.5 -37.5q-62 0 -144 24l6 193h125q57 0 103 48.5t112 178.5q-237 526 -364 1053zM203 1382q0 59 36.5 96.5t96.5 37.5 q61 0 98 -37.5t37 -96.5q0 -60 -37 -97.5t-98 -37.5q-60 0 -96.5 37.5t-36.5 97.5zM627 1382q0 59 37 96.5t98 37.5q58 0 95.5 -37.5t37.5 -96.5q0 -60 -37 -97.5t-96 -37.5q-61 0 -98 37.5t-37 97.5z" />
<glyph unicode="&#x152;" horiz-adv-x="1941" d="M94 707q0 347 183 548t520 201q120 0 227 -26h788v-218h-557v-366h482v-213h-482v-416h566v-217h-811q-162 -27 -230 -27q-339 0 -512.5 183t-173.5 551zM385 731q0 -126 21.5 -220.5t69.5 -166t129.5 -108.5t195.5 -37q94 0 182 39v954q-93 39 -203 39q-87 0 -155 -26.5 t-112.5 -72t-73.5 -110t-41.5 -136.5t-12.5 -155z" />
<glyph unicode="&#x153;" horiz-adv-x="1953" d="M82 508q0 264 145.5 418.5t409.5 154.5q269 0 395 -176q124 176 375 176q230 0 341.5 -128t111.5 -361q0 -20 -5 -123h-694q0 -145 67 -219t224 -74q176 0 348 45l25 -190q-196 -60 -414 -60q-143 0 -239.5 42t-159.5 134q-138 -176 -398 -176q-135 0 -237.5 39 t-166.5 111t-96 169t-32 218zM356 535q0 -177 65.5 -266t211.5 -89q129 0 195.5 92.5t66.5 241.5q0 171 -66 265.5t-206 94.5q-132 0 -199.5 -92.5t-67.5 -246.5zM1161 639h441q5 120 -48.5 188t-160.5 68q-110 0 -170 -76t-62 -180z" />
<glyph unicode="&#x178;" horiz-adv-x="1224" d="M12 1430h310q133 -331 305 -615q179 292 297 615h288q-196 -473 -460 -855v-575h-275v575q-260 390 -465 855zM268 1657q0 57 35.5 93t91.5 36q57 0 93 -36t36 -93q0 -56 -36 -91.5t-93 -35.5q-55 0 -91 36t-36 91zM717 1657q0 57 35.5 93t91.5 36q57 0 93 -36t36 -93 q0 -56 -36 -91.5t-93 -35.5q-56 0 -91.5 36t-35.5 91z" />
<glyph unicode="&#x2c6;" horiz-adv-x="753" d="M0 1305l315 282l320 -282l-98 -117l-224 174l-223 -174z" />
<glyph unicode="&#x2dc;" horiz-adv-x="864" d="M0 1313q31 97 92.5 148.5t147.5 51.5q62 0 110 -22t87 -44t79 -22q71 0 117 101l117 -82q-31 -96 -93.5 -148.5t-146.5 -52.5q-49 0 -90.5 13.5t-66 30.5t-57 30.5t-65.5 13.5q-69 0 -114 -98z" />
<glyph unicode="&#x2000;" horiz-adv-x="978" />
<glyph unicode="&#x2001;" horiz-adv-x="1956" />
<glyph unicode="&#x2002;" horiz-adv-x="978" />
<glyph unicode="&#x2003;" horiz-adv-x="1956" />
<glyph unicode="&#x2004;" horiz-adv-x="652" />
<glyph unicode="&#x2005;" horiz-adv-x="489" />
<glyph unicode="&#x2006;" horiz-adv-x="326" />
<glyph unicode="&#x2007;" horiz-adv-x="326" />
<glyph unicode="&#x2008;" horiz-adv-x="244" />
<glyph unicode="&#x2009;" horiz-adv-x="391" />
<glyph unicode="&#x200a;" horiz-adv-x="108" />
<glyph unicode="&#x2010;" horiz-adv-x="622" d="M78 444v213h536v-213h-536z" />
<glyph unicode="&#x2011;" horiz-adv-x="622" d="M78 444v213h536v-213h-536z" />
<glyph unicode="&#x2012;" horiz-adv-x="622" d="M78 444v213h536v-213h-536z" />
<glyph unicode="&#x2013;" d="M0 520v215h1126v-215h-1126z" />
<glyph unicode="&#x2014;" horiz-adv-x="2048" d="M158 520v215h1732v-215h-1732z" />
<glyph unicode="&#x2018;" horiz-adv-x="563" d="M123 1145q0 99 67.5 216.5t212.5 235.5l109 -96q-135 -144 -135 -217q0 -23 28.5 -72t28.5 -100q0 -69 -42 -112.5t-111 -43.5q-68 0 -113 52.5t-45 136.5z" />
<glyph unicode="&#x2019;" horiz-adv-x="563" d="M51 991q135 144 135 215q0 23 -15 47.5t-29.5 56t-14.5 70.5q0 67 43.5 111.5t112.5 44.5q68 0 112.5 -52.5t44.5 -137.5q0 -97 -67.5 -215.5t-212.5 -237.5z" />
<glyph unicode="&#x201a;" horiz-adv-x="563" d="M51 -242q135 144 135 215q0 23 -15 47t-29.5 55t-14.5 70q0 68 43 112t113 44q69 0 113 -51.5t44 -136.5q0 -98 -67.5 -216t-212.5 -237z" />
<glyph unicode="&#x201c;" horiz-adv-x="976" d="M125 1155q0 96 64.5 211t205.5 231l101 -96q-129 -134 -129 -209q0 -27 28.5 -77t28.5 -93q0 -62 -42 -104.5t-106 -42.5q-65 0 -108 49.5t-43 130.5zM549 1155q0 95 65 208.5t205 225.5l99 -96q-127 -127 -127 -201q0 -28 28.5 -76.5t28.5 -93.5q0 -62 -42.5 -104.5 t-105.5 -42.5q-64 0 -107.5 50t-43.5 130z" />
<glyph unicode="&#x201d;" horiz-adv-x="976" d="M59 1004q125 125 125 200q0 26 -28.5 75t-28.5 95q0 61 42.5 103.5t104.5 42.5q66 0 110 -49.5t44 -131.5q0 -95 -65 -208.5t-207 -225.5zM479 995q129 131 129 209q0 27 -28.5 76.5t-28.5 93.5q0 61 42 103.5t107 42.5t108.5 -50t43.5 -131q0 -96 -65 -211t-207 -231z " />
<glyph unicode="&#x201e;" horiz-adv-x="985" d="M59 -227q127 127 127 200q0 27 -28.5 76.5t-28.5 95.5q0 64 42 107t108 43t109.5 -50t43.5 -132q0 -96 -66 -211t-208 -228zM483 -236q131 135 131 209q0 27 -28.5 76.5t-28.5 95.5q0 64 42.5 107t107.5 43q66 0 109.5 -50t43.5 -132q0 -96 -66 -213.5t-208 -233.5z" />
<glyph unicode="&#x2022;" d="M172 709q0 162 114.5 276.5t276.5 114.5q163 0 277 -113t114 -276t-115 -277.5t-276 -114.5q-163 0 -277 113.5t-114 276.5z" />
<glyph unicode="&#x2026;" horiz-adv-x="1609" d="M129 145q0 69 48 117.5t118 48.5t119 -48.5t49 -117.5q0 -72 -48.5 -120t-119.5 -48t-118.5 48t-47.5 120zM637 145q0 69 49 117.5t119 48.5t118 -48.5t48 -117.5q0 -72 -47.5 -120t-118.5 -48t-119.5 48t-48.5 120zM1147 145q0 69 48 117.5t118 48.5t119 -48.5 t49 -117.5q0 -72 -48.5 -120t-119.5 -48t-118.5 48t-47.5 120z" />
<glyph unicode="&#x202f;" horiz-adv-x="391" />
<glyph unicode="&#x2039;" horiz-adv-x="776" d="M90 573l297 486l188 -70l-219 -416l219 -415l-188 -70z" />
<glyph unicode="&#x203a;" horiz-adv-x="776" d="M201 158l219 415l-219 416l188 70l299 -486l-299 -485z" />
<glyph unicode="&#x205f;" horiz-adv-x="489" />
<glyph unicode="&#x20ac;" d="M35 426v162h129q-4 70 -4 110q0 37 4 115h-129v160h147q46 235 184 359t359 124q165 0 303 -76l-72 -186q-106 49 -221 49q-230 0 -284 -270h356v-160h-377q-4 -62 -4 -100q0 -47 4 -125h377v-162h-352q46 -240 295 -240q125 0 225 54l65 -195q-138 -72 -319 -72 q-235 0 -368.5 111.5t-174.5 341.5h-143z" />
<glyph unicode="&#x2122;" horiz-adv-x="1441" d="M66 1292v138h462v-138h-145v-461h-170v461h-147zM588 831q0 265 24 599h222l122 -386l123 386h217q26 -327 29 -599h-154q-2 136 -10 416l-137 -416h-152l-139 418q-4 -274 -4 -418h-141z" />
<glyph unicode="&#x25fc;" horiz-adv-x="1054" d="M0 0v1055h1055v-1055h-1055z" />
<glyph unicode="&#xfb01;" horiz-adv-x="1271" d="M41 854v199h156v90q0 101 17 174.5t56 130t108 85t169 28.5q73 0 153 -17v-186h-84q-50 0 -82.5 -14.5t-48 -44t-21 -61.5t-5.5 -79v-106h661v-1053h-262v854h-399v-854h-262v854h-156zM829 1366q0 70 45.5 114t116.5 44t116.5 -44t45.5 -114t-45.5 -114t-116.5 -44 t-116.5 44t-45.5 114z" />
<glyph unicode="&#xfb02;" horiz-adv-x="1300" d="M41 854v199h156v71q0 110 21.5 187t73.5 135.5t144.5 86.5t229.5 28q186 0 444 -31v-1237q0 -54 18.5 -79.5t63.5 -25.5h72v-188q-90 -23 -164 -23q-118 0 -185 57t-67 191v1123q-85 10 -184 10q-120 0 -162.5 -56t-42.5 -169v-80h209v-199h-209v-854h-262v854h-156z" />
<glyph unicode="&#xfb03;" horiz-adv-x="1929" d="M41 854v199h156v90q0 101 17 174.5t56 130t108 85t169 28.5q84 0 164 -17v-186h-95q-50 0 -82.5 -14.5t-48 -44t-21 -61.5t-5.5 -79v-106h397v90q0 206 79 312t271 106q87 0 164 -17v-186h-94q-50 0 -83 -14.5t-48.5 -44t-21 -61.5t-5.5 -79v-106h662v-1053h-262v854 h-400v-854h-262v854h-397v-854h-262v854h-156zM1487 1366q0 70 45.5 114t116.5 44t116 -44t45 -114t-45 -114t-116 -44t-116.5 44t-45.5 114z" />
<glyph unicode="&#xfb04;" horiz-adv-x="1968" d="M41 854v199h156v90q0 101 17 174.5t56 130t108 85t169 28.5q84 0 164 -17v-186h-95q-50 0 -82.5 -14.5t-48 -44t-21 -61.5t-5.5 -79v-106h397v71q0 110 22 187t75 135.5t146.5 86.5t231.5 28q180 0 449 -31v-1237q0 -55 18 -80t64 -25h69v-188q-85 -23 -164 -23 q-118 0 -183.5 57t-65.5 191v1123q-92 10 -191 10q-121 0 -165 -56.5t-44 -168.5v-80h211v-199h-211v-854h-262v854h-397v-854h-262v854h-156z" />
</font>
</defs>
</svg>
